# xmcd
#
# Track frame offsets:
#	150
#	17652
#	31570
#	44885
#	60525
#	71277
#	79710
#	95387
#	111547
#	123082
#	138540
#
# Disc length: 2049 seconds
#
# Revision: 1
# Processed by: cddbd v1.5PL3 Copyright (c) Steve Scherf et al.
# Submitted via: audiograbber 1.82.02
#
DISCID=8d07ff0b
DTITLE=Dennis Marsh - Out Of Nashville
DYEAR=1900
DGENRE=
TTITLE0=I Need  You To Hold Me Together
TTITLE1=No More Broken Hearts
TTITLE2=No Stones To Throw
TTITLE3=Love Don't Come Easy
TTITLE4=If This Is Love
TTITLE5=One Heart
TTITLE6=Take Me As I Am
TTITLE7=I Guess Your Memory Serves Me Right
TTITLE8=The Door Is Still Open To My Heart
TTITLE9=The Hard Times Make The Good Times Even Better
TTITLE10=Your Star's Still  Shining Bright
EXTD=
EXTT0=
EXTT1=
EXTT2=
EXTT3=
EXTT4=
EXTT5=
EXTT6=
EXTT7=
EXTT8=
EXTT9=
EXTT10=
PLAYORDER=
